<?xml version="1.0"?><svg xmlns="http://www.w3.org/2000/svg" width="288" height="288"><rect x="0" y="0" width="100%" height="100%" fill="rgb(253, 203, 110)" /><g fill="#ddd" stroke="#000" stroke-opacity="0.02" style="fill-opacity:0.14133333333333;" transform="translate(-24, -36)" ><rect x="24" y="0" width="24" height="72" /><rect x="0" y="24" width="72" height="24" /></g><g fill="#ddd" stroke="#000" stroke-opacity="0.02" style="fill-opacity:0.14133333333333;" transform="translate(264, -36)" ><rect x="24" y="0" width="24" height="72" /><rect x="0" y="24" width="72" height="24" /></g><g fill="#ddd" stroke="#000" stroke-opacity="0.02" style="fill-opacity:0.14133333333333;" transform="translate(-24, 252)" ><rect x="24" y="0" width="24" height="72" /><rect x="0" y="24" width="72" height="24" /></g><g fill="#ddd" stroke="#000" stroke-opacity="0.02" style="fill-opacity:0.14133333333333;" transform="translate(264, 252)" ><rect x="24" y="0" width="24" height="72" /><rect x="0" y="24" width="72" height="24" /></g><g fill="#222" stroke="#000" stroke-opacity="0.02" style="fill-opacity:0.028666666666667;" transform="translate(24, -36)" ><rect x="24" y="0" width="24" height="72" /><rect x="0" y="24" width="72" height="24" /></g><g fill="#222" stroke="#000" stroke-opacity="0.02" style="fill-opacity:0.028666666666667;" transform="translate(24, 252)" ><rect x="24" y="0" width="24" height="72" /><rect x="0" y="24" width="72" height="24" /></g><g fill="#ddd" stroke="#000" stroke-opacity="0.02" style="fill-opacity:0.10666666666667;" transform="translate(72, -36)" ><rect x="24" y="0" width="24" height="72" /><rect x="0" y="24" width="72" height="24" /></g><g fill="#ddd" stroke="#000" stroke-opacity="0.02" style="fill-opacity:0.10666666666667;" transform="translate(72, 252)" ><rect x="24" y="0" width="24" height="72" /><rect x="0" y="24" width="72" height="24" /></g><g fill="#ddd" stroke="#000" stroke-opacity="0.02" style="fill-opacity:0.089333333333333;" transform="translate(120, -36)" ><rect x="24" y="0" width="24" height="72" /><rect x="0" y="24" width="72" height="24" /></g><g fill="#ddd" stroke="#000" stroke-opacity="0.02" style="fill-opacity:0.089333333333333;" transform="translate(120, 252)" ><rect x="24" y="0" width="24" height="72" /><rect x="0" y="24" width="72" height="24" /></g><g fill="#ddd" stroke="#000" stroke-opacity="0.02" style="fill-opacity:0.072;" transform="translate(168, -36)" ><rect x="24" y="0" width="24" height="72" /><rect x="0" y="24" width="72" height="24" /></g><g fill="#ddd" stroke="#000" stroke-opacity="0.02" style="fill-opacity:0.072;" transform="translate(168, 252)" ><rect x="24" y="0" width="24" height="72" /><rect x="0" y="24" width="72" height="24" /></g><g fill="#ddd" stroke="#000" stroke-opacity="0.02" style="fill-opacity:0.054666666666667;" transform="translate(216, -36)" ><rect x="24" y="0" width="24" height="72" /><rect x="0" y="24" width="72" height="24" /></g><g fill="#ddd" stroke="#000" stroke-opacity="0.02" style="fill-opacity:0.054666666666667;" transform="translate(216, 252)" ><rect x="24" y="0" width="24" height="72" /><rect x="0" y="24" width="72" height="24" /></g><g fill="#222" stroke="#000" stroke-opacity="0.02" style="fill-opacity:0.15;" transform="translate(0, 12)" ><rect x="24" y="0" width="24" height="72" /><rect x="0" y="24" width="72" height="24" /></g><g fill="#222" stroke="#000" stroke-opacity="0.02" style="fill-opacity:0.15;" transform="translate(288, 12)" ><rect x="24" y="0" width="24" height="72" /><rect x="0" y="24" width="72" height="24" /></g><g fill="#ddd" stroke="#000" stroke-opacity="0.02" style="fill-opacity:0.02;" transform="translate(48, 12)" ><rect x="24" y="0" width="24" height="72" /><rect x="0" y="24" width="72" height="24" /></g><g fill="#222" stroke="#000" stroke-opacity="0.02" style="fill-opacity:0.11533333333333;" transform="translate(96, 12)" ><rect x="24" y="0" width="24" height="72" /><rect x="0" y="24" width="72" height="24" /></g><g fill="#222" stroke="#000" stroke-opacity="0.02" style="fill-opacity:0.080666666666667;" transform="translate(144, 12)" ><rect x="24" y="0" width="24" height="72" /><rect x="0" y="24" width="72" height="24" /></g><g fill="#222" stroke="#000" stroke-opacity="0.02" style="fill-opacity:0.080666666666667;" transform="translate(192, 12)" ><rect x="24" y="0" width="24" height="72" /><rect x="0" y="24" width="72" height="24" /></g><g fill="#222" stroke="#000" stroke-opacity="0.02" style="fill-opacity:0.15;" transform="translate(240, 12)" ><rect x="24" y="0" width="24" height="72" /><rect x="0" y="24" width="72" height="24" /></g><g fill="#ddd" stroke="#000" stroke-opacity="0.02" style="fill-opacity:0.072;" transform="translate(-24, 60)" ><rect x="24" y="0" width="24" height="72" /><rect x="0" y="24" width="72" height="24" /></g><g fill="#ddd" stroke="#000" stroke-opacity="0.02" style="fill-opacity:0.072;" transform="translate(264, 60)" ><rect x="24" y="0" width="24" height="72" /><rect x="0" y="24" width="72" height="24" /></g><g fill="#ddd" stroke="#000" stroke-opacity="0.02" style="fill-opacity:0.124;" transform="translate(24, 60)" ><rect x="24" y="0" width="24" height="72" /><rect x="0" y="24" width="72" height="24" /></g><g fill="#ddd" stroke="#000" stroke-opacity="0.02" style="fill-opacity:0.089333333333333;" transform="translate(72, 60)" ><rect x="24" y="0" width="24" height="72" /><rect x="0" y="24" width="72" height="24" /></g><g fill="#222" stroke="#000" stroke-opacity="0.02" style="fill-opacity:0.098;" transform="translate(120, 60)" ><rect x="24" y="0" width="24" height="72" /><rect x="0" y="24" width="72" height="24" /></g><g fill="#222" stroke="#000" stroke-opacity="0.02" style="fill-opacity:0.080666666666667;" transform="translate(168, 60)" ><rect x="24" y="0" width="24" height="72" /><rect x="0" y="24" width="72" height="24" /></g><g fill="#222" stroke="#000" stroke-opacity="0.02" style="fill-opacity:0.098;" transform="translate(216, 60)" ><rect x="24" y="0" width="24" height="72" /><rect x="0" y="24" width="72" height="24" /></g><g fill="#ddd" stroke="#000" stroke-opacity="0.02" style="fill-opacity:0.054666666666667;" transform="translate(0, 108)" ><rect x="24" y="0" width="24" height="72" /><rect x="0" y="24" width="72" height="24" /></g><g fill="#ddd" stroke="#000" stroke-opacity="0.02" style="fill-opacity:0.054666666666667;" transform="translate(288, 108)" ><rect x="24" y="0" width="24" height="72" /><rect x="0" y="24" width="72" height="24" /></g><g fill="#ddd" stroke="#000" stroke-opacity="0.02" style="fill-opacity:0.089333333333333;" transform="translate(48, 108)" ><rect x="24" y="0" width="24" height="72" /><rect x="0" y="24" width="72" height="24" /></g><g fill="#ddd" stroke="#000" stroke-opacity="0.02" style="fill-opacity:0.037333333333333;" transform="translate(96, 108)" ><rect x="24" y="0" width="24" height="72" /><rect x="0" y="24" width="72" height="24" /></g><g fill="#222" stroke="#000" stroke-opacity="0.02" style="fill-opacity:0.080666666666667;" transform="translate(144, 108)" ><rect x="24" y="0" width="24" height="72" /><rect x="0" y="24" width="72" height="24" /></g><g fill="#ddd" stroke="#000" stroke-opacity="0.02" style="fill-opacity:0.10666666666667;" transform="translate(192, 108)" ><rect x="24" y="0" width="24" height="72" /><rect x="0" y="24" width="72" height="24" /></g><g fill="#222" stroke="#000" stroke-opacity="0.02" style="fill-opacity:0.098;" transform="translate(240, 108)" ><rect x="24" y="0" width="24" height="72" /><rect x="0" y="24" width="72" height="24" /></g><g fill="#ddd" stroke="#000" stroke-opacity="0.02" style="fill-opacity:0.02;" transform="translate(-24, 156)" ><rect x="24" y="0" width="24" height="72" /><rect x="0" y="24" width="72" height="24" /></g><g fill="#ddd" stroke="#000" stroke-opacity="0.02" style="fill-opacity:0.02;" transform="translate(264, 156)" ><rect x="24" y="0" width="24" height="72" /><rect x="0" y="24" width="72" height="24" /></g><g fill="#222" stroke="#000" stroke-opacity="0.02" style="fill-opacity:0.046;" transform="translate(24, 156)" ><rect x="24" y="0" width="24" height="72" /><rect x="0" y="24" width="72" height="24" /></g><g fill="#222" stroke="#000" stroke-opacity="0.02" style="fill-opacity:0.063333333333333;" transform="translate(72, 156)" ><rect x="24" y="0" width="24" height="72" /><rect x="0" y="24" width="72" height="24" /></g><g fill="#222" stroke="#000" stroke-opacity="0.02" style="fill-opacity:0.046;" transform="translate(120, 156)" ><rect x="24" y="0" width="24" height="72" /><rect x="0" y="24" width="72" height="24" /></g><g fill="#222" stroke="#000" stroke-opacity="0.02" style="fill-opacity:0.063333333333333;" transform="translate(168, 156)" ><rect x="24" y="0" width="24" height="72" /><rect x="0" y="24" width="72" height="24" /></g><g fill="#222" stroke="#000" stroke-opacity="0.02" style="fill-opacity:0.063333333333333;" transform="translate(216, 156)" ><rect x="24" y="0" width="24" height="72" /><rect x="0" y="24" width="72" height="24" /></g><g fill="#222" stroke="#000" stroke-opacity="0.02" style="fill-opacity:0.13266666666667;" transform="translate(0, 204)" ><rect x="24" y="0" width="24" height="72" /><rect x="0" y="24" width="72" height="24" /></g><g fill="#222" stroke="#000" stroke-opacity="0.02" style="fill-opacity:0.13266666666667;" transform="translate(288, 204)" ><rect x="24" y="0" width="24" height="72" /><rect x="0" y="24" width="72" height="24" /></g><g fill="#ddd" stroke="#000" stroke-opacity="0.02" style="fill-opacity:0.124;" transform="translate(48, 204)" ><rect x="24" y="0" width="24" height="72" /><rect x="0" y="24" width="72" height="24" /></g><g fill="#ddd" stroke="#000" stroke-opacity="0.02" style="fill-opacity:0.089333333333333;" transform="translate(96, 204)" ><rect x="24" y="0" width="24" height="72" /><rect x="0" y="24" width="72" height="24" /></g><g fill="#222" stroke="#000" stroke-opacity="0.02" style="fill-opacity:0.13266666666667;" transform="translate(144, 204)" ><rect x="24" y="0" width="24" height="72" /><rect x="0" y="24" width="72" height="24" /></g><g fill="#ddd" stroke="#000" stroke-opacity="0.02" style="fill-opacity:0.02;" transform="translate(192, 204)" ><rect x="24" y="0" width="24" height="72" /><rect x="0" y="24" width="72" height="24" /></g><g fill="#222" stroke="#000" stroke-opacity="0.02" style="fill-opacity:0.063333333333333;" transform="translate(240, 204)" ><rect x="24" y="0" width="24" height="72" /><rect x="0" y="24" width="72" height="24" /></g></svg>