<?xml version="1.0"?><svg xmlns="http://www.w3.org/2000/svg" width="600" height="600"><rect x="0" y="0" width="100%" height="100%" fill="rgb(108, 92, 231)" /><circle cx="0" cy="0" r="100" fill="#222" style="opacity:0.15;" /><circle cx="600" cy="0" r="100" fill="#222" style="opacity:0.15;" /><circle cx="0" cy="600" r="100" fill="#222" style="opacity:0.15;" /><circle cx="600" cy="600" r="100" fill="#222" style="opacity:0.15;" /><circle cx="100" cy="0" r="100" fill="#ddd" style="opacity:0.10666666666667;" /><circle cx="100" cy="600" r="100" fill="#ddd" style="opacity:0.10666666666667;" /><circle cx="200" cy="0" r="100" fill="#222" style="opacity:0.080666666666667;" /><circle cx="200" cy="600" r="100" fill="#222" style="opacity:0.080666666666667;" /><circle cx="300" cy="0" r="100" fill="#222" style="opacity:0.063333333333333;" /><circle cx="300" cy="600" r="100" fill="#222" style="opacity:0.063333333333333;" /><circle cx="400" cy="0" r="100" fill="#222" style="opacity:0.063333333333333;" /><circle cx="400" cy="600" r="100" fill="#222" style="opacity:0.063333333333333;" /><circle cx="500" cy="0" r="100" fill="#222" style="opacity:0.080666666666667;" /><circle cx="500" cy="600" r="100" fill="#222" style="opacity:0.080666666666667;" /><circle cx="0" cy="100" r="100" fill="#222" style="opacity:0.098;" /><circle cx="600" cy="100" r="100" fill="#222" style="opacity:0.098;" /><circle cx="100" cy="100" r="100" fill="#222" style="opacity:0.028666666666667;" /><circle cx="200" cy="100" r="100" fill="#222" style="opacity:0.13266666666667;" /><circle cx="300" cy="100" r="100" fill="#ddd" style="opacity:0.02;" /><circle cx="400" cy="100" r="100" fill="#222" style="opacity:0.063333333333333;" /><circle cx="500" cy="100" r="100" fill="#ddd" style="opacity:0.02;" /><circle cx="0" cy="200" r="100" fill="#222" style="opacity:0.098;" /><circle cx="600" cy="200" r="100" fill="#222" style="opacity:0.098;" /><circle cx="100" cy="200" r="100" fill="#222" style="opacity:0.11533333333333;" /><circle cx="200" cy="200" r="100" fill="#222" style="opacity:0.11533333333333;" /><circle cx="300" cy="200" r="100" fill="#ddd" style="opacity:0.02;" /><circle cx="400" cy="200" r="100" fill="#ddd" style="opacity:0.072;" /><circle cx="500" cy="200" r="100" fill="#ddd" style="opacity:0.10666666666667;" /><circle cx="0" cy="300" r="100" fill="#ddd" style="opacity:0.14133333333333;" /><circle cx="600" cy="300" r="100" fill="#ddd" style="opacity:0.14133333333333;" /><circle cx="100" cy="300" r="100" fill="#222" style="opacity:0.080666666666667;" /><circle cx="200" cy="300" r="100" fill="#222" style="opacity:0.028666666666667;" /><circle cx="300" cy="300" r="100" fill="#222" style="opacity:0.063333333333333;" /><circle cx="400" cy="300" r="100" fill="#ddd" style="opacity:0.10666666666667;" /><circle cx="500" cy="300" r="100" fill="#ddd" style="opacity:0.037333333333333;" /><circle cx="0" cy="400" r="100" fill="#ddd" style="opacity:0.02;" /><circle cx="600" cy="400" r="100" fill="#ddd" style="opacity:0.02;" /><circle cx="100" cy="400" r="100" fill="#222" style="opacity:0.080666666666667;" /><circle cx="200" cy="400" r="100" fill="#ddd" style="opacity:0.037333333333333;" /><circle cx="300" cy="400" r="100" fill="#222" style="opacity:0.13266666666667;" /><circle cx="400" cy="400" r="100" fill="#ddd" style="opacity:0.14133333333333;" /><circle cx="500" cy="400" r="100" fill="#222" style="opacity:0.080666666666667;" /><circle cx="0" cy="500" r="100" fill="#ddd" style="opacity:0.037333333333333;" /><circle cx="600" cy="500" r="100" fill="#ddd" style="opacity:0.037333333333333;" /><circle cx="100" cy="500" r="100" fill="#ddd" style="opacity:0.054666666666667;" /><circle cx="200" cy="500" r="100" fill="#ddd" style="opacity:0.089333333333333;" /><circle cx="300" cy="500" r="100" fill="#222" style="opacity:0.028666666666667;" /><circle cx="400" cy="500" r="100" fill="#222" style="opacity:0.063333333333333;" /><circle cx="500" cy="500" r="100" fill="#ddd" style="opacity:0.14133333333333;" /></svg>