<?xml version="1.0"?><svg xmlns="http://www.w3.org/2000/svg" width="280" height="162"><rect x="0" y="0" width="100%" height="100%" fill="rgb(0, 184, 148)" /><polyline points="0, 0, 46.76537180436, 27, 0, 54, 0, 0" fill="#222" fill-opacity="0.098" stroke="#000" stroke-opacity="0.02" transform="translate(0, -27) rotate(180, 23.38268590218, 27)" /><polyline points="0, 0, 46.76537180436, 27, 0, 54, 0, 0" fill="#222" fill-opacity="0.098" stroke="#000" stroke-opacity="0.02" transform="translate(0, 135) rotate(180, 23.38268590218, 27)" /><polyline points="0, 0, 46.76537180436, 27, 0, 54, 0, 0" fill="#222" fill-opacity="0.063333333333333" stroke="#000" stroke-opacity="0.02" transform="translate(46.76537180436, -27) rotate(0, 23.38268590218, 27)" /><polyline points="0, 0, 46.76537180436, 27, 0, 54, 0, 0" fill="#222" fill-opacity="0.063333333333333" stroke="#000" stroke-opacity="0.02" transform="translate(46.76537180436, 135) rotate(0, 23.38268590218, 27)" /><polyline points="0, 0, 46.76537180436, 27, 0, 54, 0, 0" fill="#ddd" fill-opacity="0.14133333333333" stroke="#000" stroke-opacity="0.02" transform="translate(93.530743608719, -27) rotate(180, 23.38268590218, 27)" /><polyline points="0, 0, 46.76537180436, 27, 0, 54, 0, 0" fill="#ddd" fill-opacity="0.14133333333333" stroke="#000" stroke-opacity="0.02" transform="translate(93.530743608719, 135) rotate(180, 23.38268590218, 27)" /><polyline points="0, 0, 46.76537180436, 27, 0, 54, 0, 0" fill="#ddd" fill-opacity="0.089333333333333" stroke="#000" stroke-opacity="0.02" transform="translate(140.29611541308, -27) rotate(0, 23.38268590218, 27)" /><polyline points="0, 0, 46.76537180436, 27, 0, 54, 0, 0" fill="#ddd" fill-opacity="0.089333333333333" stroke="#000" stroke-opacity="0.02" transform="translate(140.29611541308, 135) rotate(0, 23.38268590218, 27)" /><polyline points="0, 0, 46.76537180436, 27, 0, 54, 0, 0" fill="#222" fill-opacity="0.028666666666667" stroke="#000" stroke-opacity="0.02" transform="translate(187.06148721744, -27) rotate(180, 23.38268590218, 27)" /><polyline points="0, 0, 46.76537180436, 27, 0, 54, 0, 0" fill="#222" fill-opacity="0.028666666666667" stroke="#000" stroke-opacity="0.02" transform="translate(187.06148721744, 135) rotate(180, 23.38268590218, 27)" /><polyline points="0, 0, 46.76537180436, 27, 0, 54, 0, 0" fill="#222" fill-opacity="0.063333333333333" stroke="#000" stroke-opacity="0.02" transform="translate(233.8268590218, -27) rotate(0, 23.38268590218, 27)" /><polyline points="0, 0, 46.76537180436, 27, 0, 54, 0, 0" fill="#222" fill-opacity="0.063333333333333" stroke="#000" stroke-opacity="0.02" transform="translate(233.8268590218, 135) rotate(0, 23.38268590218, 27)" /><polyline points="0, 0, 46.76537180436, 27, 0, 54, 0, 0" fill="#222" fill-opacity="0.13266666666667" stroke="#000" stroke-opacity="0.02" transform="translate(0, 0) rotate(0, 23.38268590218, 27)" /><polyline points="0, 0, 46.76537180436, 27, 0, 54, 0, 0" fill="#222" fill-opacity="0.028666666666667" stroke="#000" stroke-opacity="0.02" transform="translate(46.76537180436, 0) rotate(180, 23.38268590218, 27)" /><polyline points="0, 0, 46.76537180436, 27, 0, 54, 0, 0" fill="#222" fill-opacity="0.063333333333333" stroke="#000" stroke-opacity="0.02" transform="translate(93.530743608719, 0) rotate(0, 23.38268590218, 27)" /><polyline points="0, 0, 46.76537180436, 27, 0, 54, 0, 0" fill="#ddd" fill-opacity="0.054666666666667" stroke="#000" stroke-opacity="0.02" transform="translate(140.29611541308, 0) rotate(180, 23.38268590218, 27)" /><polyline points="0, 0, 46.76537180436, 27, 0, 54, 0, 0" fill="#222" fill-opacity="0.028666666666667" stroke="#000" stroke-opacity="0.02" transform="translate(187.06148721744, 0) rotate(0, 23.38268590218, 27)" /><polyline points="0, 0, 46.76537180436, 27, 0, 54, 0, 0" fill="#222" fill-opacity="0.11533333333333" stroke="#000" stroke-opacity="0.02" transform="translate(233.8268590218, 0) rotate(180, 23.38268590218, 27)" /><polyline points="0, 0, 46.76537180436, 27, 0, 54, 0, 0" fill="#222" fill-opacity="0.15" stroke="#000" stroke-opacity="0.02" transform="translate(0, 27) rotate(180, 23.38268590218, 27)" /><polyline points="0, 0, 46.76537180436, 27, 0, 54, 0, 0" fill="#ddd" fill-opacity="0.072" stroke="#000" stroke-opacity="0.02" transform="translate(46.76537180436, 27) rotate(0, 23.38268590218, 27)" /><polyline points="0, 0, 46.76537180436, 27, 0, 54, 0, 0" fill="#222" fill-opacity="0.15" stroke="#000" stroke-opacity="0.02" transform="translate(93.530743608719, 27) rotate(180, 23.38268590218, 27)" /><polyline points="0, 0, 46.76537180436, 27, 0, 54, 0, 0" fill="#222" fill-opacity="0.046" stroke="#000" stroke-opacity="0.02" transform="translate(140.29611541308, 27) rotate(0, 23.38268590218, 27)" /><polyline points="0, 0, 46.76537180436, 27, 0, 54, 0, 0" fill="#222" fill-opacity="0.063333333333333" stroke="#000" stroke-opacity="0.02" transform="translate(187.06148721744, 27) rotate(180, 23.38268590218, 27)" /><polyline points="0, 0, 46.76537180436, 27, 0, 54, 0, 0" fill="#ddd" fill-opacity="0.089333333333333" stroke="#000" stroke-opacity="0.02" transform="translate(233.8268590218, 27) rotate(0, 23.38268590218, 27)" /><polyline points="0, 0, 46.76537180436, 27, 0, 54, 0, 0" fill="#ddd" fill-opacity="0.124" stroke="#000" stroke-opacity="0.02" transform="translate(0, 54) rotate(0, 23.38268590218, 27)" /><polyline points="0, 0, 46.76537180436, 27, 0, 54, 0, 0" fill="#222" fill-opacity="0.15" stroke="#000" stroke-opacity="0.02" transform="translate(46.76537180436, 54) rotate(180, 23.38268590218, 27)" /><polyline points="0, 0, 46.76537180436, 27, 0, 54, 0, 0" fill="#222" fill-opacity="0.15" stroke="#000" stroke-opacity="0.02" transform="translate(93.530743608719, 54) rotate(0, 23.38268590218, 27)" /><polyline points="0, 0, 46.76537180436, 27, 0, 54, 0, 0" fill="#222" fill-opacity="0.15" stroke="#000" stroke-opacity="0.02" transform="translate(140.29611541308, 54) rotate(180, 23.38268590218, 27)" /><polyline points="0, 0, 46.76537180436, 27, 0, 54, 0, 0" fill="#222" fill-opacity="0.11533333333333" stroke="#000" stroke-opacity="0.02" transform="translate(187.06148721744, 54) rotate(0, 23.38268590218, 27)" /><polyline points="0, 0, 46.76537180436, 27, 0, 54, 0, 0" fill="#ddd" fill-opacity="0.14133333333333" stroke="#000" stroke-opacity="0.02" transform="translate(233.8268590218, 54) rotate(180, 23.38268590218, 27)" /><polyline points="0, 0, 46.76537180436, 27, 0, 54, 0, 0" fill="#ddd" fill-opacity="0.072" stroke="#000" stroke-opacity="0.02" transform="translate(0, 81) rotate(180, 23.38268590218, 27)" /><polyline points="0, 0, 46.76537180436, 27, 0, 54, 0, 0" fill="#ddd" fill-opacity="0.072" stroke="#000" stroke-opacity="0.02" transform="translate(46.76537180436, 81) rotate(0, 23.38268590218, 27)" /><polyline points="0, 0, 46.76537180436, 27, 0, 54, 0, 0" fill="#ddd" fill-opacity="0.10666666666667" stroke="#000" stroke-opacity="0.02" transform="translate(93.530743608719, 81) rotate(180, 23.38268590218, 27)" /><polyline points="0, 0, 46.76537180436, 27, 0, 54, 0, 0" fill="#222" fill-opacity="0.11533333333333" stroke="#000" stroke-opacity="0.02" transform="translate(140.29611541308, 81) rotate(0, 23.38268590218, 27)" /><polyline points="0, 0, 46.76537180436, 27, 0, 54, 0, 0" fill="#222" fill-opacity="0.046" stroke="#000" stroke-opacity="0.02" transform="translate(187.06148721744, 81) rotate(180, 23.38268590218, 27)" /><polyline points="0, 0, 46.76537180436, 27, 0, 54, 0, 0" fill="#ddd" fill-opacity="0.10666666666667" stroke="#000" stroke-opacity="0.02" transform="translate(233.8268590218, 81) rotate(0, 23.38268590218, 27)" /><polyline points="0, 0, 46.76537180436, 27, 0, 54, 0, 0" fill="#222" fill-opacity="0.15" stroke="#000" stroke-opacity="0.02" transform="translate(0, 108) rotate(0, 23.38268590218, 27)" /><polyline points="0, 0, 46.76537180436, 27, 0, 54, 0, 0" fill="#ddd" fill-opacity="0.02" stroke="#000" stroke-opacity="0.02" transform="translate(46.76537180436, 108) rotate(180, 23.38268590218, 27)" /><polyline points="0, 0, 46.76537180436, 27, 0, 54, 0, 0" fill="#222" fill-opacity="0.13266666666667" stroke="#000" stroke-opacity="0.02" transform="translate(93.530743608719, 108) rotate(0, 23.38268590218, 27)" /><polyline points="0, 0, 46.76537180436, 27, 0, 54, 0, 0" fill="#ddd" fill-opacity="0.02" stroke="#000" stroke-opacity="0.02" transform="translate(140.29611541308, 108) rotate(180, 23.38268590218, 27)" /><polyline points="0, 0, 46.76537180436, 27, 0, 54, 0, 0" fill="#ddd" fill-opacity="0.124" stroke="#000" stroke-opacity="0.02" transform="translate(187.06148721744, 108) rotate(0, 23.38268590218, 27)" /><polyline points="0, 0, 46.76537180436, 27, 0, 54, 0, 0" fill="#ddd" fill-opacity="0.02" stroke="#000" stroke-opacity="0.02" transform="translate(233.8268590218, 108) rotate(180, 23.38268590218, 27)" /></svg>